<?xml version="1.0" encoding="UTF-8"?>
<svg width="48px" height="40px" viewBox="0 0 48 40" version="1.1" xmlns="http://www.w3.org/2000/svg" xmlns:xlink="http://www.w3.org/1999/xlink">
    <!-- Generator: Sketch 63.1 (92452) - https://sketch.com -->
    <title>System icons/ Social twitter / </title>
    <desc>Created with Sketch.</desc>
    <defs>
        <path d="M53.3333333,14.75 C52.0107097,16.7916769 50.4117409,18.5312428 48.536379,19.96875 C48.5561197,20.2604181 48.5659898,20.6979137 48.5659898,21.28125 C48.5659898,23.9895969 48.1909231,26.6926948 47.4407783,29.390625 C46.6906336,32.0885552 45.5506281,34.6770709 44.0207276,37.15625 C42.4908271,39.6354291 40.6697793,41.8281155 38.5575296,43.734375 C36.4452799,45.6406345 33.8987741,47.1614527 30.9179357,48.296875 C27.9370973,49.4322973 24.7490299,50 21.3536379,50 C16.0039214,50 11.1083132,48.4895984 6.66666667,45.46875 C7.35758947,45.5520838 8.12746332,45.59375 8.97631134,45.59375 C13.4179579,45.59375 17.3758992,44.1562644 20.8502538,41.28125 C18.7774854,41.2395831 16.921892,40.5677148 15.2834179,39.265625 C13.6449439,37.9635352 12.5197436,36.3020934 11.9077834,34.28125 C12.5592249,34.3854172 13.1613058,34.4375 13.714044,34.4375 C14.562892,34.4375 15.4018571,34.3229178 16.2309645,34.09375 C14.0200115,33.6145809 12.1890935,32.4531342 10.7381557,30.609375 C9.28721779,28.7656158 8.56175973,26.6250122 8.56175973,24.1875 L8.56175973,24.0625 C9.90412403,24.8541706 11.34517,25.2812497 12.8849408,25.34375 C11.5820578,24.4270787 10.5456891,23.2291741 9.77580372,21.75 C9.00591832,20.2708259 8.62098139,18.6666753 8.62098139,16.9375 C8.62098139,15.1041575 9.0552692,13.4062578 9.92385787,11.84375 C12.3124767,14.9479322 15.219244,17.4322823 18.644247,19.296875 C22.0692501,21.1614677 25.7360211,22.1979156 29.6446701,22.40625 C29.4867448,21.6145794 29.4077834,20.8437538 29.4077834,20.09375 C29.4077834,17.3020694 30.3405152,14.9218848 32.2060068,12.953125 C34.0714983,10.9843652 36.3268339,10 38.9720812,10 C41.7357724,10 44.0651343,11.0624894 45.9602369,13.1875 C48.1119679,12.7499978 50.1353543,11.9375059 52.0304569,10.75 C51.3000527,13.1458453 49.8984875,15 47.8257191,16.3125 C49.6615997,16.1041656 51.4974527,15.5833375 53.3333333,14.75 Z" id="path-1"></path>
    </defs>
    <g id="|--ICONS" stroke="none" stroke-width="1" fill="none" fill-rule="evenodd">
        <g id="02-Foundation-–-Icon" transform="translate(-158.000000, -2645.000000)">
            <g id="Products-and-Services" transform="translate(127.000000, 1751.000000)">
                <g id="Row" transform="translate(0.000000, 884.000000)">
                    <g id="Item">
                        <g id="System-icons/-Social-twitter-/-" transform="translate(25.000000, 0.000000)">
                            <rect id="Container" fill="#FFFFFF" fill-rule="evenodd" opacity="0" x="0" y="0" width="60" height="60"></rect>
                            <mask id="mask-2" fill="white">
                                <use xlink:href="#path-1"></use>
                            </mask>
                            <use id="twitter" fill="#333333" fill-rule="evenodd" xlink:href="#path-1"></use>
                        </g>
                    </g>
                </g>
            </g>
        </g>
    </g>
</svg>